<?xml version="1.0" standalone="no"?>
<!DOCTYPE svg PUBLIC "-//W3C//DTD SVG 20010904//EN"
 "http://www.w3.org/TR/2001/REC-SVG-20010904/DTD/svg10.dtd">
<svg version="1.0" xmlns="http://www.w3.org/2000/svg"
 width="16.000000pt" height="16.000000pt" viewBox="0 0 16.000000 16.000000"
 preserveAspectRatio="xMidYMid meet">
<metadata>
Created by potrace 1.11, written by Peter Selinger 2001-2013
</metadata>
<g transform="translate(0.000000,16.000000) scale(0.002286,-0.002286)"
fill="#000000" stroke="none">
<path d="M1110 5829 c-143 -16 -247 -66 -350 -169 -100 -100 -151 -197 -168
-320 -3 -25 -6 -866 -6 -1870 l0 -1825 26 -72 c37 -105 72 -159 152 -238 78
-77 158 -122 266 -151 61 -16 227 -17 2470 -17 2627 0 2450 -4 2577 55 166 77
297 245 327 421 10 56 12 484 11 1887 -1 1722 -2 1818 -19 1875 -61 202 -224
358 -429 412 -56 14 -284 16 -2432 17 -1303 1 -2395 -2 -2425 -5z m945 -885
l206 -205 -42 -47 c-24 -26 -46 -49 -49 -52 -36 -30 -173 -238 -228 -345 -80
-158 -148 -366 -167 -510 -4 -27 -9 -61 -12 -75 -8 -44 -11 -348 -3 -392 4
-24 11 -68 14 -98 13 -112 71 -301 136 -445 63 -139 181 -323 271 -420 21 -22
47 -52 59 -67 l21 -27 -205 -205 -205 -205 -75 82 c-349 382 -551 843 -601
1367 -6 66 -7 330 -1 385 2 17 6 62 10 100 17 161 80 405 152 589 77 195 228
451 354 600 54 65 153 175 157 176 1 0 95 -93 208 -206z m3174 119 c309 -341
507 -756 575 -1203 23 -156 26 -201 26 -365 -1 -155 -3 -186 -15 -283 -7 -59
-8 -62 -20 -127 -4 -22 -9 -51 -12 -65 -2 -14 -13 -59 -23 -100 -96 -376 -293
-736 -558 -1018 l-50 -53 -206 205 -206 205 51 58 c58 66 169 210 169 220 0 4
7 14 15 23 8 8 41 67 73 130 135 263 192 488 197 780 4 232 -35 464 -105 635
-50 122 -86 203 -97 216 -7 8 -13 19 -13 22 0 26 -166 256 -245 340 -25 27
-42 53 -38 60 16 25 389 395 400 396 6 1 43 -34 82 -76z m-1579 -408 c30 -4
64 -9 75 -11 37 -5 131 -33 197 -58 231 -86 441 -264 576 -485 71 -115 135
-283 148 -391 4 -25 9 -63 13 -85 15 -87 1 -302 -24 -395 -1 -3 -5 -18 -9 -35
-73 -283 -276 -547 -543 -704 -287 -169 -656 -202 -979 -87 -197 69 -396 216
-532 391 -322 415 -315 1015 17 1430 196 245 477 401 776 431 33 4 61 7 62 8
6 5 173 -2 223 -9z"/>
<path d="M3477 4084 c-1 -1 -23 -4 -48 -7 -191 -23 -363 -145 -448 -318 -23
-46 -46 -109 -52 -139 -44 -237 54 -474 249 -603 180 -119 387 -132 581 -36
298 147 410 515 245 805 -74 130 -209 238 -343 274 -40 10 -178 29 -184 24z"/>
</g>
</svg>
